<svg width="365" height="61" viewBox="0 0 365 61" fill="none" xmlns="http://www.w3.org/2000/svg">
<path d="M0.504 47V0.919998H17.528C20.8133 0.919998 23.608 1.45333 25.912 2.52C28.216 3.58666 29.9653 5.08 31.16 7C32.3973 8.87733 33.016 11.1173 33.016 13.72C33.016 16.3227 32.3973 18.6053 31.16 20.568C29.9653 22.488 28.216 24.0027 25.912 25.112C23.608 26.1787 20.8133 26.712 17.528 26.712H4.344V22.104H17.336C20.7493 22.104 23.3307 21.3573 25.08 19.864C26.872 18.3707 27.768 16.3227 27.768 13.72C27.768 11.16 26.8933 9.15466 25.144 7.704C23.3947 6.25333 20.792 5.528 17.336 5.528H5.752V47H0.504ZM27.512 47L3 24.152H10.168L35.448 47H27.512ZM53.5585 47.64C50.4438 47.64 47.6918 46.9147 45.3025 45.464C42.9132 43.9707 41.0358 41.944 39.6705 39.384C38.3052 36.824 37.6225 33.88 37.6225 30.552C37.6225 27.224 38.2838 24.3013 39.6065 21.784C40.9718 19.224 42.8705 17.24 45.3025 15.832C47.7345 14.424 50.5292 13.72 53.6865 13.72C56.7158 13.72 59.3398 14.3813 61.5585 15.704C63.8198 17.0267 65.5478 18.8827 66.7425 21.272C67.9798 23.6613 68.5985 26.4773 68.5985 29.72C68.5985 30.1467 68.5772 30.552 68.5345 30.936C68.5345 31.32 68.4918 31.7467 68.4065 32.216H41.4625V27.928H65.2705L63.6065 30.296C63.6065 26.3707 62.7318 23.3627 60.9825 21.272C59.2758 19.1387 56.8438 18.072 53.6865 18.072C50.4438 18.072 47.8198 19.2027 45.8145 21.464C43.8518 23.6827 42.8705 26.6907 42.8705 30.488C42.8705 34.3707 43.8518 37.4853 45.8145 39.832C47.8198 42.136 50.4865 43.288 53.8145 43.288C55.9052 43.288 57.7398 42.84 59.3185 41.944C60.8972 41.0053 62.0492 39.6827 62.7745 37.976H67.6385C66.5718 40.9627 64.7798 43.3307 62.2625 45.08C59.7878 46.7867 56.8865 47.64 53.5585 47.64ZM87.3795 47.64C83.3688 47.64 80.1688 46.7227 77.7795 44.888C75.3902 43.0107 74.0248 40.3653 73.6835 36.952H78.6115C78.9102 39.0427 79.8275 40.6427 81.3635 41.752C82.8995 42.8613 84.9475 43.416 87.5075 43.416C89.7688 43.416 91.5395 42.9893 92.8195 42.136C94.0995 41.2827 94.7395 40.0667 94.7395 38.488C94.7395 37.3787 94.3768 36.4187 93.6515 35.608C92.9262 34.7547 91.4755 34.0507 89.2995 33.496L84.0515 32.152C81.0648 31.384 78.8248 30.2107 77.3315 28.632C75.8382 27.0107 75.0915 25.0907 75.0915 22.872C75.0915 20.056 76.1368 17.8373 78.2275 16.216C80.3182 14.552 83.1555 13.72 86.7395 13.72C90.2808 13.72 93.1608 14.5733 95.3795 16.28C97.5982 17.9867 98.8568 20.3547 99.1555 23.384H94.2275C93.9288 21.6347 93.1182 20.2907 91.7955 19.352C90.4728 18.4133 88.7235 17.944 86.5475 17.944C84.4568 17.944 82.8355 18.3493 81.6835 19.16C80.5315 19.928 79.9555 21.0373 79.9555 22.488C79.9555 23.5973 80.3608 24.5573 81.1715 25.368C82.0248 26.1787 83.4328 26.8613 85.3955 27.416L90.5155 28.824C93.5448 29.6347 95.8275 30.872 97.3635 32.536C98.8995 34.2 99.6675 36.2053 99.6675 38.552C99.6675 41.4107 98.5795 43.6507 96.4035 45.272C94.2275 46.8507 91.2195 47.64 87.3795 47.64ZM122.686 47.576C119.614 47.576 117.032 46.8293 114.942 45.336C112.851 43.8427 111.422 41.7307 110.654 39L111.678 38.872V60.12H106.558V14.36H111.358V21.976L110.654 21.784C111.464 19.2667 113 17.304 115.262 15.896C117.523 14.4453 120.147 13.72 123.134 13.72C126.035 13.72 128.552 14.424 130.686 15.832C132.862 17.24 134.547 19.2027 135.742 21.72C136.936 24.2373 137.534 27.1813 137.534 30.552C137.534 33.9653 136.915 36.952 135.678 39.512C134.44 42.072 132.712 44.056 130.494 45.464C128.275 46.872 125.672 47.576 122.686 47.576ZM121.918 43.096C125.16 43.096 127.699 41.9867 129.534 39.768C131.368 37.5067 132.286 34.4347 132.286 30.552C132.286 26.712 131.368 23.704 129.534 21.528C127.699 19.3093 125.16 18.2 121.918 18.2C118.675 18.2 116.115 19.3307 114.238 21.592C112.36 23.8107 111.422 26.8613 111.422 30.744C111.422 34.5413 112.36 37.5493 114.238 39.768C116.115 41.9867 118.675 43.096 121.918 43.096ZM158.938 47.64C155.738 47.64 152.922 46.8933 150.49 45.4C148.058 43.9067 146.159 41.88 144.794 39.32C143.471 36.7173 142.81 33.7947 142.81 30.552C142.81 27.2667 143.493 24.3653 144.858 21.848C146.223 19.3307 148.101 17.3467 150.49 15.896C152.922 14.4453 155.738 13.72 158.938 13.72C162.181 13.72 164.997 14.4453 167.386 15.896C169.818 17.3467 171.695 19.3307 173.018 21.848C174.383 24.3653 175.066 27.2667 175.066 30.552C175.066 33.7947 174.383 36.7173 173.018 39.32C171.695 41.88 169.818 43.9067 167.386 45.4C164.997 46.8933 162.181 47.64 158.938 47.64ZM158.938 43.288C161.157 43.288 163.077 42.7547 164.698 41.688C166.319 40.5787 167.578 39.064 168.474 37.144C169.37 35.224 169.818 33.0053 169.818 30.488C169.818 26.7333 168.815 23.7253 166.81 21.464C164.847 19.2027 162.223 18.072 158.938 18.072C155.695 18.072 153.071 19.2027 151.066 21.464C149.061 23.7253 148.058 26.7333 148.058 30.488C148.058 33.0053 148.506 35.224 149.402 37.144C150.298 39.064 151.557 40.5787 153.178 41.688C154.842 42.7547 156.762 43.288 158.938 43.288ZM182.745 47V14.36H187.545V22.04H187.865V47H182.745ZM206.105 47V25.624C206.105 23.1493 205.486 21.2933 204.249 20.056C203.012 18.8187 201.177 18.2 198.745 18.2C196.612 18.2 194.713 18.6693 193.049 19.608C191.428 20.5467 190.148 21.848 189.209 23.512C188.313 25.176 187.865 27.1173 187.865 29.336L187.033 21.592C188.142 19.16 189.828 17.24 192.089 15.832C194.393 14.424 196.996 13.72 199.897 13.72C203.31 13.72 206.041 14.7013 208.089 16.664C210.18 18.584 211.225 21.1227 211.225 24.28V47H206.105ZM244.802 47V39.384L245.442 39.576C244.631 42.0507 243.138 44.0133 240.962 45.464C238.828 46.9147 236.268 47.64 233.282 47.64C230.338 47.64 227.756 46.936 225.538 45.528C223.362 44.12 221.655 42.1573 220.418 39.64C219.223 37.1227 218.626 34.1787 218.626 30.808C218.626 27.3947 219.244 24.408 220.482 21.848C221.719 19.288 223.447 17.304 225.666 15.896C227.884 14.488 230.487 13.784 233.474 13.784C236.546 13.784 239.127 14.5307 241.218 16.024C243.308 17.5173 244.738 19.6293 245.506 22.36L244.482 22.488V0.919998H249.602V47H244.802ZM234.242 43.16C237.527 43.16 240.087 42.0507 241.922 39.832C243.799 37.5707 244.738 34.4987 244.738 30.616C244.738 26.8187 243.799 23.8107 241.922 21.592C240.044 19.3733 237.484 18.264 234.242 18.264C230.999 18.264 228.46 19.3733 226.626 21.592C224.791 23.8107 223.874 26.8827 223.874 30.808C223.874 34.648 224.791 37.6773 226.626 39.896C228.46 42.072 230.999 43.16 234.242 43.16ZM273.246 47.64C270.131 47.64 267.379 46.9147 264.99 45.464C262.601 43.9707 260.723 41.944 259.358 39.384C257.993 36.824 257.31 33.88 257.31 30.552C257.31 27.224 257.971 24.3013 259.294 21.784C260.659 19.224 262.558 17.24 264.99 15.832C267.422 14.424 270.217 13.72 273.374 13.72C276.403 13.72 279.027 14.3813 281.246 15.704C283.507 17.0267 285.235 18.8827 286.43 21.272C287.667 23.6613 288.286 26.4773 288.286 29.72C288.286 30.1467 288.265 30.552 288.222 30.936C288.222 31.32 288.179 31.7467 288.094 32.216H261.15V27.928H284.958L283.294 30.296C283.294 26.3707 282.419 23.3627 280.67 21.272C278.963 19.1387 276.531 18.072 273.374 18.072C270.131 18.072 267.507 19.2027 265.502 21.464C263.539 23.6827 262.558 26.6907 262.558 30.488C262.558 34.3707 263.539 37.4853 265.502 39.832C267.507 42.136 270.174 43.288 273.502 43.288C275.593 43.288 277.427 42.84 279.006 41.944C280.585 41.0053 281.737 39.6827 282.462 37.976H287.326C286.259 40.9627 284.467 43.3307 281.95 45.08C279.475 46.7867 276.574 47.64 273.246 47.64Z" fill="#383940"/>
<path d="M292.864 47V40.408H299.456V47H292.864Z" fill="black"/>
<path d="M305.849 47L322.361 0.919998H330.809L315.641 47H305.849ZM339.641 47L324.537 0.919998H333.369L349.881 47H339.641ZM314.553 29.144H340.409V36.824H314.553V29.144ZM354.638 47V0.919998H364.494V47H354.638Z" fill="#F99736"/>
</svg>
